<?xml version="1.0" encoding="utf-8"?>
<!-- Generator: Adobe Illustrator 22.0.1, SVG Export Plug-In . SVG Version: 6.00 Build 0)  -->
<svg version="1.1" id="레이어_1" xmlns="http://www.w3.org/2000/svg" xmlns:xlink="http://www.w3.org/1999/xlink" x="0px"
	 y="0px" viewBox="0 0 430 150" enable-background="new 0 0 430 150" xml:space="preserve">
<g>
	<path fill="#272727" d="M220.44984,27.28979l-1.29297,2.44983c0,0,55.46782,23.70801,40.28606,43.96078h9.39099
		C268.83392,73.7004,280.94696,52.74077,220.44984,27.28979z"/>
	<path fill="#272727" d="M161.45073,21.70962c19.92644-6.43169,52.96725,6.19479,57.70615,8.03l1.04732-2.56466
		c-38.86343-18.4219-66.51215-9.27617-66.51215-9.27617c-27.15224,18.3737,33.48097,49.60899,33.48097,49.60899l1.42906-3.47058
		C164.98848,53.55737,139.9458,28.6508,161.45073,21.70962z"/>
	<polygon fill="#098BFA" points="51.61593,117.93339 62.64015,117.93339 81.14996,64.0372 69.98963,64.0372 	"/>
	<path fill="#098BFA" d="M83.46368,77.37514H93.6713l-10.20762,27.90081c0,0-0.6805,2.15189,1.90543,2.84527
		c2.58593,0.69337,11.56863,0,11.56863,0s1.90542-0.39545,2.85813-2.30087s10.20761-28.44521,10.20761-28.44521h10.20761
		l-10.75201,31.05424c0,0-1.90543,8.6874-11.70473,9.50401H78.15572c0,0-7.48559,0.27221-5.58016-8.57439L83.46368,77.37514z"/>
	<polygon fill="#272727" points="155.59747,118.61481 160.90543,118.61481 176.0127,89.89648 	"/>
	<polygon fill="#272727" points="201.87198,118.61481 212.2157,118.61481 212.2157,59.40975 201.87198,75.74193 201.87198,91.6658 
		191.52827,91.6658 185.53981,101.05681 201.87198,101.05681 	"/>
	<path fill="#272727" d="M218.20416,85.26903v31.71165l10.07152-27.0842c0,0,0.9527-2.44983,5.17184-2.72203s6.26068,0,6.26068,0
		l3.26643-9.66321H229.7728C229.7728,77.51125,222.96771,76.83074,218.20416,85.26903z"/>
	<path fill="#272727" d="M282.92044,77.49812l-3.77682,10.32281h-16.74048c0,0-5.71628-0.10207-6.94119,3.67474l-5.30795,14.18858
		c0,0-1.02077,2.85813,1.42906,3.26643h19.59862l-3.26645,9.66412h-22.66089c0,0-8.26816,0.9518-7.45155-6.39769l8.8414-25.00307
		c0.88634-2.50654,2.35677-4.78482,4.36385-6.52838c1.72737-1.50058,4.0807-2.86114,7.10791-3.18755H282.92044z"/>
	<path fill="#272727" d="M319.62842,78.45233c-0.8389-0.30759-1.73434-0.4307-2.62787-0.4307h-17.35318l4.91321-12.96367h-10.30969
		l-20.00693,53.59714h10.00345l11.60867-30.63001h12.30322c1.50504,0,2.71301,1.2833,2.57321,2.7818
		c-0.04504,0.4826-0.15509,1.0478-0.35361,1.70955c-1.22491,4.08305-9.59515,26.13866-9.59515,26.13866h9.97321l10.95239-29.20094
		C321.70935,89.45415,326.11008,80.82872,319.62842,78.45233z"/>
	<polygon fill="#272727" points="331.09451,83.94204 318.13669,118.6551 328.14014,118.6551 341.2963,83.94204 	"/>
	<ellipse fill="#272727" cx="338.04153" cy="77.00086" rx="5.30796" ry="2.5519"/>
	<polygon fill="#272727" points="348.55539,80.47145 345.69724,118.6551 359.06921,118.6551 387.65054,80.47145 376.62631,80.47145 
		356.10901,109.05276 359.27338,80.47145 	"/>
	<path fill="#098BFA" d="M57.81231,67.23869c-1.05691-1.49534-2.82658-2.8313-5.78807-3.20148H19.49599L1.66669,117.93339
		l34.17654,0.00001c0.43374,0,0.86443-0.04103,1.28958-0.12695c0.14468-0.02924,0.30742-0.06456,0.48594-0.10697
		c5.11301-1.21468,9.18232-5.08141,10.77178-10.0906l3.17994-10.02163c0.40394-1.27303,0.38987-2.65252-0.10012-3.89497
		c-0.44734-1.13428-1.25445-2.39662-2.70927-3.16846c-0.30381-0.16116-0.30179-0.59758,0.00506-0.75289
		c1.46774-0.74287,4.49245-2.44125,5.70794-4.3658l4.15836-11.0889C59.515,71.96266,59.26312,69.29133,57.81231,67.23869z
		 M40.28548,98.60744c0,0-0.81661,4.21869-1.83737,5.95398c-1.02076,1.7353-3.98097,3.08539-3.98097,3.08539H15.96681
		l3.59721-12.06808c0,0,15.00519-0.51038,17.9654,0C40.48963,96.0891,40.28548,98.60744,40.28548,98.60744z M46.6142,77.37515
		c0,0-0.61246,3.40253-1.63322,5.13783c-1.02076,1.73529-3.87889,2.5519-3.87889,2.5519H23.34084l3.16436-10.61592
		c0,0,15.00519-0.51038,17.9654,0C47.43081,74.95934,46.6142,77.37515,46.6142,77.37515z"/>
	<path fill="#098BFA" d="M154.50867,78.60007h-19.05423c0,0-7.07726,0.68049-10.3437,7.48557s-8.71049,23.40945-8.71049,23.40945
		s-2.7804,4.96635,2.68525,7.8562c1.641,0.86762,3.49058,1.26354,5.34684,1.26354l25.72107-0.00002l3.13034-8.9836h-23.54877
		c-1.68909,0-2.98019-1.50433-2.72343-3.17378c0.12116-0.78767,0.40955-1.75862,0.95731-2.95079h27.08418l5.98848-16.8766
		C161.04153,86.63004,163.89967,79.82498,154.50867,78.60007z M148.71255,90.13185l-1.45129,4.22195h-16.12804l1.73712-5.05347
		c0.30428-0.88512,1.13699-1.47941,2.07295-1.47941h12.12001C148.26054,87.82093,149.10175,88.99964,148.71255,90.13185z"/>
	<path fill="#272727" d="M419.98425,78.60007h-19.0542c0,0-7.07727,0.68049-10.34372,7.48557s-8.71048,23.40945-8.71048,23.40945
		s-2.78043,4.96635,2.68524,7.8562c1.64099,0.86762,3.49057,1.26354,5.34683,1.26354l25.72107-0.00002l3.13034-8.9836h-23.54877
		c-1.68909,0-2.98019-1.50433-2.72342-3.17378c0.12115-0.78767,0.40955-1.75862,0.95731-2.95079h27.0842l5.98846-16.8766
		C426.51712,86.63004,429.37527,79.82498,419.98425,78.60007z M414.18814,90.13185l-1.45129,4.22195h-16.12802l1.73712-5.05347
		c0.30426-0.88512,1.13699-1.47941,2.07294-1.47941h12.12003C413.73615,87.82093,414.57733,88.99964,414.18814,90.13185z"/>
	<g>
		<polygon fill="#272727" points="262.40314,138.29761 282.92041,138.29761 283.78809,135.38843 263.06665,135.38843 		"/>
		<path fill="#272727" d="M279.80713,139.31836h-16.48529l-0.40833,2.09253h13.09125c0.29596,0,0.53589,0.23993,0.53589,0.53589
			c0,0.29602-0.23993,0.53595-0.53589,0.53595h-12.53729c-0.40375,0-0.78888,0.15485-1.08551,0.42871
			c-0.73236,0.67609-1.86108,2.09094-0.92999,3.80396c0.27582,0.50745,0.81384,0.82007,1.39142,0.82007h16.70856l0.51038-2.14362
			h-14.41827c-0.26776,0-0.48486-0.21704-0.48486-0.48486c0-0.26776,0.2171-0.48486,0.48486-0.48486h14.16309l0.81659-3.26642
			C280.62372,141.1557,281.13409,139.57355,279.80713,139.31836z"/>
		<path fill="#272727" d="M306.75519,127.93683h-15.41345l-1.07184,3.21539h12.72089c0.38849,0,0.67877,0.35706,0.59955,0.73743
			c-0.05914,0.284-0.30945,0.48749-0.59955,0.48749h-10.21741c-1.52026,0-2.99609,0.69543-3.84082,1.95941
			c-0.32776,0.49042-0.58936,1.09015-0.70416,1.81744c-0.45935,2.90918,2.55188,2.90918,2.55188,2.90918h15.26038l0.76556-3.06232
			h-12.83606c-0.32416,0-0.58691-0.26276-0.58691-0.58691s0.26276-0.58698,0.58691-0.58698h13.04022l1.12286-4.54236
			C308.13324,130.28461,308.69464,128.49829,306.75519,127.93683z"/>
		<polygon fill="#272727" points="285.88062,143.42688 293.52625,143.42688 292.41351,147.53546 296.59863,147.53546 
			297.69696,143.42688 305.83649,143.42688 306.70416,140.13495 286.85034,140.13495 		"/>
		<path fill="#272727" d="M336.81665,135.59259l1.39758-4.93829c0.14063-0.49689,0.17273-1.026,0.03784-1.52441
			c-0.14673-0.5423-0.49127-1.11646-1.28235-1.24408c-1.58215-0.25519-2.47284,1.22369-3.21539,3.72577l-4.79755,16.16553h4.3382
			l2.55194-8.71393h2.90912l1.17389-3.47058H336.81665z"/>
		<path fill="#272727" d="M355.53967,129.84015c-0.22858-0.40411-0.65021-0.85577-1.42114-1.03564h-7.75867
			c-0.22327,0-0.44037,0.06519-0.62469,0.19122c-0.51276,0.35059-1.43414,1.185-1.14136,2.51648
			c0.11145,0.50659,0.56879,0.86493,1.08746,0.86493h4.78894c0.42023,0,0.72241,0.40393,0.60382,0.80707l-0.65045,2.21173
			c-0.0788,0.26788-0.32465,0.45184-0.60388,0.45184h-6.77643l-0.96973,3.31744h6.52264c0.31848,0,0.50537,0.35907,0.31903,0.61737
			c-1.01538,1.40704-3.95197,4.70648-8.98529,4.38434l-1.02075,3.11334c0,0,6.02252,1.4801,11.22839-3.31744
			c4.52313-4.1684,5.46307-11.18799,5.63184-12.95746C355.80786,130.60193,355.7392,130.19293,355.53967,129.84015z"/>
		<path fill="#272727" d="M363.06622,130.66296c0.06604-0.21204,0.08942-0.4325,0.07269-0.65393
			c-0.04669-0.61768-0.24896-1.7796-1.1095-1.81702c-1.13397-0.04926-2.07745,0.33008-2.8764,1.78217
			c-0.05627,0.10223-0.10107,0.2135-0.13531,0.32507L353.50604,148.25h4.23621l2.75604-9.05927h3.06226l0.9187-3.39404h-3.01123
			L363.06622,130.66296z"/>
		<path fill="#272727" d="M389.00653,130.35638c0.02362-0.72607-0.08356-2.2392-1.35602-2.47058
			c-1.68427-0.30621-3.11328,2.85815-3.11328,2.85815L379.17822,148.25h4.44031l5.27466-17.23053
			C388.95917,130.80389,388.99921,130.58173,389.00653,130.35638z"/>
		<polygon fill="#272727" points="387.80365,147.95764 408.78027,147.95764 409.75,144.26904 389.00922,144.26904 		"/>
		<path fill="#272727" d="M279.90918,128.95764h-9.90137l0.30621-1.4801h-4.18512l-1.93945,7.34943h18.42474l2.0415-7.34943
			h-4.23615L279.90918,128.95764z M279.14362,132.42822h-9.95239l0.30621-1.276h10.0545L279.14362,132.42822z"/>
		<path fill="#272727" d="M330.61548,130.50153c-0.51038-1.16113-1.55664-2.30951-3.70026-2.25842
			c-3.93298,0.09363-5.24585,0.74567-7.01215,3.21704c-0.32458,0.45416-0.56635,0.9624-0.7287,1.49646l-2.77301,9.1178
			c0,0-1.32697,4.33826,3.3175,5.51208c4.64447,1.17389,7.40051-3.41956,8.16608-4.38928
			c0.60864-0.77087,2.28174-6.8642,2.94214-9.33014C331.12585,132.75159,331.0802,131.55865,330.61548,130.50153z
			 M326.61108,134.02905c-0.46783,1.63269-1.89215,6.55426-2.40088,7.75189c-0.61243,1.44183-1.17389,2.4881-2.85809,2.07977
			c-1.45215-0.35205-0.89349-1.91815-0.71191-2.34308c0.03845-0.09003,0.07074-0.18073,0.099-0.27441l2.29724-7.61066
			c0.10132-0.33563,0.26215-0.65063,0.48291-0.92297c0.42242-0.52094,1.1806-1.26709,2.01788-1.20007
			c0.55823,0.04468,0.86243,0.43121,1.02808,0.85199C326.77405,132.89172,326.76807,133.48126,326.61108,134.02905z"/>
		<path fill="#272727" d="M380.75311,130.50153c-0.51038-1.16113-1.55664-2.30951-3.70026-2.25842
			c-3.93298,0.09363-5.24585,0.74567-7.01215,3.21704c-0.32458,0.45416-0.56635,0.9624-0.72876,1.49646l-2.77295,9.1178
			c0,0-1.32697,4.33826,3.3175,5.51208c4.64447,1.17389,7.40051-3.41956,8.16608-4.38928
			c0.60864-0.77087,2.28174-6.8642,2.94214-9.33014C381.26343,132.75159,381.21777,131.55865,380.75311,130.50153z
			 M376.74872,134.02905c-0.46783,1.63269-1.89215,6.55426-2.40088,7.75189c-0.61243,1.44183-1.17389,2.4881-2.85809,2.07977
			c-1.45215-0.35205-0.89349-1.91815-0.71191-2.34308c0.03845-0.09003,0.07074-0.18073,0.099-0.27441l2.29724-7.61066
			c0.10132-0.33563,0.26215-0.65063,0.48291-0.92297c0.42242-0.52094,1.1806-1.26709,2.01788-1.20007
			c0.55823,0.04468,0.86243,0.43121,1.02808,0.85199C376.91168,132.89172,376.9057,133.48126,376.74872,134.02905z"/>
		<path fill="#272727" d="M392.9585,140.84949c1.58215,0.51038,16.07697,0,16.07697,0l3.92993-12.47443h-3.92993l-1.22491,3.13446
			h-9.64618l0.9187-3.13446h-4.18512l-3.11334,10.22876C391.78461,138.60382,391.37628,140.33911,392.9585,140.84949z
			 M397.24567,134.72571h9.54413l-0.66351,2.60217h-9.54407L397.24567,134.72571z"/>
	</g>
	<path fill="#098BFA" d="M212.65843,47.01595c11.75314,5.13865,59.41109,25.8453,67.81218,27.43301
		c0,0-51.39125-25.72348-65.23015-32.29563c4.66719-9.05938,15.63731-30.7458,19.29588-41.40333l-24.77992,38.96843
		c-12.93584-5.4909-72.85039-30.82034-81.5834-32.63971c0,0,60.45865,29.96173,78.69344,37.54388
		c-9.6803,16.73441-46.03052,79.91701-48.68304,89.64297C158.18341,134.26556,186.24644,91.26182,212.65843,47.01595z"/>
</g>
</svg>
